<?xml version="1.0" encoding="UTF-8"?>
<svg version="1.1" xmlns="http://www.w3.org/2000/svg" width="591" height="178">
<path d="M0 0 C0.77338431 0.00092179 1.54676863 0.00184359 2.34358883 0.00279331 C3.22844967 0.00141865 4.11331051 0.00004398 5.02498531 -0.00137234 C6.00321758 0.00222294 6.98144985 0.00581821 7.98932552 0.00952244 C9.01359646 0.00937641 10.03786739 0.00923038 11.09317684 0.00907993 C14.49665055 0.00977955 17.9000703 0.0175742 21.30353451 0.02539158 C23.65623094 0.02725559 26.00892776 0.02867957 28.36162472 0.0296793 C34.56769531 0.03350584 40.77374266 0.04333728 46.97980404 0.05438328 C53.30711204 0.06459448 59.63442378 0.06917629 65.96173763 0.0742197 C78.38687807 0.08495942 90.81200124 0.10203747 103.23712826 0.12304783 C104.71545085 3.07969302 104.29745608 5.8653452 104.23712826 9.12304783 C105.22712826 9.12304783 106.21712826 9.12304783 107.23712826 9.12304783 C107.23712826 8.46304783 107.23712826 7.80304783 107.23712826 7.12304783 C114.57351267 7.45957922 121.6748698 8.68968416 128.86212826 10.12304783 C129.76350521 10.30126072 130.66488216 10.47947361 131.59357357 10.66308689 C138.10788836 11.99380794 138.10788836 11.99380794 139.23712826 13.12304783 C138.87727292 28.87363901 138.87727292 28.87363901 134.61212826 34.12304783 C134.15837826 34.45304783 133.70462826 34.78304783 133.23712826 35.12304783 C133.89712826 35.12304783 134.55712826 35.12304783 135.23712826 35.12304783 C134.65625828 45.98651909 132.7707665 56.5963918 130.92853451 67.29882908 C130.59812067 69.23783425 130.26804338 71.1768968 129.93828487 73.11601353 C129.2497058 77.15838743 128.55761011 81.20013816 127.86286068 85.24145603 C126.97464057 90.40943982 126.09448996 95.57875868 125.21685028 100.74854851 C124.53775469 104.74425845 123.85481276 108.73930347 123.17067432 112.73415279 C122.8446674 114.64007334 122.51974896 116.54618043 122.19596195 118.45247936 C121.74290158 121.11588654 121.28476011 123.77837156 120.82526302 126.44067478 C120.6280138 127.60894306 120.6280138 127.60894306 120.42677975 128.80081272 C119.63507812 133.35003331 118.58280177 137.70487736 117.23712826 142.12304783 C113.93712826 142.12304783 110.63712826 142.12304783 107.23712826 142.12304783 C107.23712826 141.46304783 107.23712826 140.80304783 107.23712826 140.12304783 C105.91712826 140.12304783 104.59712826 140.12304783 103.23712826 140.12304783 C103.23712826 140.78304783 103.23712826 141.44304783 103.23712826 142.12304783 C89.56410263 142.14616833 75.89108162 142.16396142 62.21804047 142.17486 C55.8698225 142.18008947 49.52161785 142.18718827 43.17340755 142.19848728 C37.05264243 142.20931389 30.93189017 142.21532418 24.81111622 142.21792507 C22.47021882 142.21977973 20.12932217 142.22340111 17.78843021 142.22877789 C14.52204624 142.23598531 11.25571611 142.2370389 7.98932552 142.23657322 C6.52197712 142.24196613 6.52197712 142.24196613 5.02498531 142.24746799 C4.14012447 142.24609333 3.25526363 142.24471867 2.34358883 142.24330235 C1.18351236 142.24468503 1.18351236 142.24468503 0 142.24609566 C-1.76287174 142.12304783 -1.76287174 142.12304783 -2.76287174 141.12304783 C-2.85149166 138.31141403 -2.87809529 135.52446527 -2.86052799 132.71289158 C-2.85911304 131.87085682 -2.8576981 131.02882206 -2.85624027 130.1612711 C-2.85062438 127.46099448 -2.83806923 124.76079955 -2.82537174 122.06054783 C-2.82035879 120.23437715 -2.81579553 118.40820517 -2.81169987 116.5820322 C-2.80064978 112.09567241 -2.78337453 107.60937399 -2.76287174 103.12304783 C-2.10287174 103.12304783 -1.44287174 103.12304783 -0.76287174 103.12304783 C-0.76287174 102.13304783 -0.76287174 101.14304783 -0.76287174 100.12304783 C-1.42287174 100.12304783 -2.08287174 100.12304783 -2.76287174 100.12304783 C-2.78599284 87.23232528 -2.80378564 74.34160763 -2.81468391 61.45086861 C-2.81991325 55.46585517 -2.82701182 49.48085586 -2.8383112 43.49585056 C-2.84913827 37.72521354 -2.85514819 31.95459015 -2.85774899 26.18394375 C-2.85960356 23.9770184 -2.86322478 21.77009383 -2.8686018 19.56317425 C-2.87580984 16.48358741 -2.87686278 13.40405769 -2.87639713 10.32446384 C-2.87999241 9.40233601 -2.88358768 8.48020817 -2.88729191 7.53013706 C-2.87521638 0.20068909 -2.87521638 0.20068909 0 0 Z " fill="#23ABF1" transform="translate(6.762871742248535,17.876952171325684)"/>
<path d="M0 0 C10.3112426 9.24153886 9.40615475 28.2256951 10.12402344 40.92529297 C11.35629708 67.65583815 10.93672418 94.52702723 6.421875 120.93359375 C6.27266602 121.82006592 6.12345703 122.70653809 5.96972656 123.61987305 C4.66914656 130.58090169 2.89606577 138.285674 -2.703125 143.05859375 C-13.91373305 147.20498303 -26.12848995 147.51190422 -37.2734375 143.0234375 C-52.46860229 135.79760226 -58.23764817 125.79745403 -63.92675781 110.26953125 C-66.38625774 103.26537045 -68.54723544 96.1607973 -70.703125 89.05859375 C-72.01151805 92.98377289 -72.24022951 96.90727843 -72.60546875 101.00390625 C-72.77528157 102.82162477 -72.9452071 104.63933277 -73.11523438 106.45703125 C-73.37823855 109.31362362 -73.63942677 112.17036435 -73.89819336 115.02734375 C-74.14983529 117.79084718 -74.40856218 120.55362237 -74.66796875 123.31640625 C-74.74200424 124.15736847 -74.81603973 124.99833069 -74.89231873 125.86477661 C-76.44470541 142.26791819 -76.44470541 142.26791819 -80.703125 146.05859375 C-91.13521113 149.7711397 -104.54143405 148.90240908 -114.51953125 144.265625 C-121.88979686 140.19154258 -124.51656621 136.27423776 -126.9765625 128.15625 C-128.36751845 122.22599156 -128.86021632 116.41249431 -128.87109375 110.3359375 C-128.87532852 109.60620728 -128.87956329 108.87647705 -128.88392639 108.12463379 C-128.89382059 105.74839529 -128.8938378 103.37234931 -128.890625 100.99609375 C-128.89002075 100.17658234 -128.8894165 99.35707092 -128.88879395 98.51272583 C-128.72226996 14.85168484 -128.72226996 14.85168484 -112.546875 -1.62890625 C-106.15000126 -6.18261298 -98.21782413 -5.85137478 -90.703125 -4.94140625 C-79.29340039 -2.13285865 -69.38580711 4.3269666 -62.703125 14.05859375 C-58.36206887 22.45057007 -55.19433466 31.40952019 -51.890625 40.24609375 C-51.3838065 41.59322804 -50.87664702 42.94023409 -50.36914062 44.28710938 C-49.14321391 47.54280685 -47.92186534 50.80019822 -46.703125 54.05859375 C-46.69432564 53.16109657 -46.69432564 53.16109657 -46.68534851 52.24546814 C-46.62125033 45.99935771 -46.5367885 39.7537547 -46.44067383 33.50805664 C-46.40748752 31.1793488 -46.37943612 28.85056173 -46.35668945 26.52172852 C-46.32302831 23.16778918 -46.27070501 19.81457169 -46.21484375 16.4609375 C-46.20845383 15.42525131 -46.2020639 14.38956512 -46.19548035 13.32249451 C-46.05540493 6.38396881 -45.44921313 1.04698377 -40.578125 -4.25390625 C-28.15650141 -11.54485923 -11.22332038 -8.06067952 0 0 Z " fill="#FE939D" transform="translate(274.703125,18.94140625)"/>
<path d="M0 0 C10.45985143 10.98919614 13.54592006 23.89074765 13.26953125 38.63671875 C12.76328925 50.15559464 7.37227745 60.15277912 -1.0859375 67.9140625 C-4.83504102 70.83003191 -8.74610125 72.89077219 -13 75 C-11.54869323 78.84677654 -10.09529146 82.6927551 -8.64031982 86.53814697 C-8.13093579 87.88552239 -7.62218523 89.23313747 -7.11407471 90.58099365 C-4.5511369 97.37947793 -1.97984464 104.16315541 0.87084961 110.84765625 C4.04251718 118.32248303 6.48168382 125.47263278 3.875 133.4375 C-0.63793392 139.60517636 -6.47434354 142.18226069 -13.83203125 143.51171875 C-20.46037853 144.3030362 -27.08308311 144.45972549 -33 141 C-37.62732489 136.52113485 -40.22092228 131.98370961 -42.25390625 125.93359375 C-42.65620705 124.79966942 -42.65620705 124.79966942 -43.06663513 123.64283752 C-43.91332411 121.24592901 -44.73830699 118.84222428 -45.5625 116.4375 C-46.11769637 114.85300883 -46.67432737 113.26901958 -47.23242188 111.68554688 C-48.3180106 108.59889507 -49.39544759 105.50960971 -50.46533203 102.41748047 C-52.59778065 96.2619639 -54.79731943 90.1306806 -57 84 C-60.465 84.495 -60.465 84.495 -64 85 C-64.02061493 85.57105469 -64.04122986 86.14210938 -64.06246948 86.73046875 C-64.27967904 92.70109907 -64.50877796 98.6711909 -64.74462891 104.64111328 C-64.83098257 106.865933 -64.91435551 109.09087057 -64.99462891 111.31591797 C-65.11087585 114.52347246 -65.23801507 117.73044313 -65.3671875 120.9375 C-65.40061249 121.92427734 -65.43403748 122.91105469 -65.46847534 123.92773438 C-66.03258641 137.22600134 -66.03258641 137.22600134 -69.41015625 141.98828125 C-78.04264481 148.90651676 -88.02616753 150.48906172 -98.9296875 149.8203125 C-106.7341183 148.76098533 -111.82983697 145.68147964 -116.9375 139.75 C-119.74351573 132.48737106 -119.12011499 124.02382109 -118.94921875 116.3515625 C-118.93121216 115.35379791 -118.91320557 114.35603333 -118.89465332 113.32803345 C-118.83320907 110.09348164 -118.76150508 106.85928746 -118.6875 103.625 C-118.6632193 102.51153198 -118.6389386 101.39806396 -118.61392212 100.25085449 C-118.0402505 74.38676425 -116.90542342 48.65155394 -114.37295532 22.90026855 C-114.2103117 21.24384584 -114.05162556 19.58702874 -113.89730835 17.92980957 C-111.82575638 -3.95779837 -111.82575638 -3.95779837 -105.0625 -10 C-81.94932131 -25.09432078 -20.01430526 -19.42564922 0 0 Z M-64 11 C-65.83118403 13.80632921 -66.24702357 15.99408728 -66.22705078 19.30957031 C-66.22689972 20.15013977 -66.22674866 20.99070923 -66.22659302 21.85675049 C-66.21627045 22.75480408 -66.20594788 23.65285767 -66.1953125 24.578125 C-66.19106766 25.96798615 -66.19106766 25.96798615 -66.18673706 27.38592529 C-66.17555611 30.34074909 -66.15045527 33.29526805 -66.125 36.25 C-66.11496751 38.25520395 -66.10584213 40.26041266 -66.09765625 42.265625 C-66.07562358 47.17720051 -66.04110795 52.08854859 -66 57 C-64.74517822 56.85594727 -63.49035645 56.71189453 -62.19750977 56.56347656 C-61.49167252 56.4824469 -60.78583527 56.40141724 -60.05860901 56.31793213 C-52.86269713 55.20659356 -44.12382646 51.30682027 -39 46 C-33.48434756 38.30315773 -30.76311674 31.52807875 -32 22 C-33.74163805 17.2323499 -35.90324219 12.18204229 -40 9 C-48.05383445 6.70272052 -56.56602219 7.21542948 -64 11 Z " fill="#C8C2F3" transform="translate(558,22)"/>
<path d="M0 0 C6.62125854 5.50124466 11.08434554 11.49824527 12.35546875 20.14453125 C12.69853624 26.65272338 10.68794326 31.00493864 7.23046875 36.39453125 C2.79157441 40.54393248 -1.29212143 42.15325809 -7.40234375 42.0234375 C-14.63561352 41.08793461 -20.7058782 38.39766845 -27.3125 35.42578125 C-33.3743393 32.98114735 -38.20292605 32.32153127 -44.45703125 34.26953125 C-54.27965001 39.85494192 -58.50712821 49.39885394 -61.51953125 59.95703125 C-64.59485929 72.89982289 -63.78342438 85.00040808 -61.64453125 98.08203125 C-51.10837932 101.03215379 -42.94749572 102.64138909 -32.64453125 98.08203125 C-27.83854283 95.1984382 -25.42740496 91.3060848 -23.64453125 86.08203125 C-22.87586054 82.21427546 -22.2133382 78.37560651 -21.6484375 74.47265625 C-20.45370258 70.43752043 -19.17118868 69.27355895 -15.64453125 67.08203125 C-9.174155 64.92523917 -0.94230102 65.06206321 5.3515625 67.84765625 C12.98087286 72.54719246 20.18961253 79.32564958 22.9765625 88.01953125 C25.24335542 100.35836279 19.98632716 115.6984952 13.53515625 125.984375 C4.34509753 139.12075305 -6.11735084 147.98667331 -21.98217773 151.61694336 C-42.57662317 155.21459751 -63.23214849 150.87685449 -80.4609375 139.16796875 C-96.02592181 127.23877467 -105.86504251 110.68708037 -109.09765625 91.375 C-109.38951335 88.93645712 -109.5526142 86.53581696 -109.64453125 84.08203125 C-109.68449219 83.26992187 -109.72445313 82.4578125 -109.765625 81.62109375 C-110.39234688 57.06834247 -103.40306244 32.76991186 -88.64453125 13.08203125 C-88.103125 12.35628906 -87.56171875 11.63054688 -87.00390625 10.8828125 C-79.59963981 1.73530858 -69.60583982 -4.84342985 -58.64453125 -8.91796875 C-57.44183594 -9.39556641 -57.44183594 -9.39556641 -56.21484375 -9.8828125 C-37.15810732 -16.32410815 -15.90275877 -11.53361087 0 0 Z " fill="#BDEAFE" transform="translate(405.64453125,18.91796875)"/>
<path d="M0 0 C0.77338431 0.00092179 1.54676863 0.00184359 2.34358883 0.00279331 C3.22844967 0.00141865 4.11331051 0.00004398 5.02498531 -0.00137234 C6.00321758 0.00222294 6.98144985 0.00581821 7.98932552 0.00952244 C9.01359646 0.00937641 10.03786739 0.00923038 11.09317684 0.00907993 C14.49665055 0.00977955 17.9000703 0.0175742 21.30353451 0.02539158 C23.65623094 0.02725559 26.00892776 0.02867957 28.36162472 0.0296793 C34.56769531 0.03350584 40.77374266 0.04333728 46.97980404 0.05438328 C53.30711204 0.06459448 59.63442378 0.06917629 65.96173763 0.0742197 C78.38687807 0.08495942 90.81200124 0.10203747 103.23712826 0.12304783 C104.71545085 3.07969302 104.29745608 5.8653452 104.23712826 9.12304783 C105.22712826 9.12304783 106.21712826 9.12304783 107.23712826 9.12304783 C107.23712826 8.46304783 107.23712826 7.80304783 107.23712826 7.12304783 C114.57351267 7.45957922 121.6748698 8.68968416 128.86212826 10.12304783 C129.76350521 10.30126072 130.66488216 10.47947361 131.59357357 10.66308689 C138.10788836 11.99380794 138.10788836 11.99380794 139.23712826 13.12304783 C138.87727292 28.87363901 138.87727292 28.87363901 134.61212826 34.12304783 C134.15837826 34.45304783 133.70462826 34.78304783 133.23712826 35.12304783 C133.89712826 35.12304783 134.55712826 35.12304783 135.23712826 35.12304783 C134.65625828 45.98651909 132.7707665 56.5963918 130.92853451 67.29882908 C130.59812067 69.23783425 130.26804338 71.1768968 129.93828487 73.11601353 C129.2497058 77.15838743 128.55761011 81.20013816 127.86286068 85.24145603 C126.97464057 90.40943982 126.09448996 95.57875868 125.21685028 100.74854851 C124.53775469 104.74425845 123.85481276 108.73930347 123.17067432 112.73415279 C122.8446674 114.64007334 122.51974896 116.54618043 122.19596195 118.45247936 C121.74290158 121.11588654 121.28476011 123.77837156 120.82526302 126.44067478 C120.6280138 127.60894306 120.6280138 127.60894306 120.42677975 128.80081272 C119.63507812 133.35003331 118.58280177 137.70487736 117.23712826 142.12304783 C113.93712826 142.12304783 110.63712826 142.12304783 107.23712826 142.12304783 C107.23712826 141.46304783 107.23712826 140.80304783 107.23712826 140.12304783 C105.91712826 140.12304783 104.59712826 140.12304783 103.23712826 140.12304783 C103.23712826 140.78304783 103.23712826 141.44304783 103.23712826 142.12304783 C89.56410263 142.14616833 75.89108162 142.16396142 62.21804047 142.17486 C55.8698225 142.18008947 49.52161785 142.18718827 43.17340755 142.19848728 C37.05264243 142.20931389 30.93189017 142.21532418 24.81111622 142.21792507 C22.47021882 142.21977973 20.12932217 142.22340111 17.78843021 142.22877789 C14.52204624 142.23598531 11.25571611 142.2370389 7.98932552 142.23657322 C6.52197712 142.24196613 6.52197712 142.24196613 5.02498531 142.24746799 C4.14012447 142.24609333 3.25526363 142.24471867 2.34358883 142.24330235 C1.18351236 142.24468503 1.18351236 142.24468503 0 142.24609566 C-1.76287174 142.12304783 -1.76287174 142.12304783 -2.76287174 141.12304783 C-2.85149166 138.31141403 -2.87809529 135.52446527 -2.86052799 132.71289158 C-2.85911304 131.87085682 -2.8576981 131.02882206 -2.85624027 130.1612711 C-2.85062438 127.46099448 -2.83806923 124.76079955 -2.82537174 122.06054783 C-2.82035879 120.23437715 -2.81579553 118.40820517 -2.81169987 116.5820322 C-2.80064978 112.09567241 -2.78337453 107.60937399 -2.76287174 103.12304783 C-1.11287174 103.45304783 0.53712826 103.78304783 2.23712826 104.12304783 C2.23712826 115.01304783 2.23712826 125.90304783 2.23712826 137.12304783 C34.24712826 137.12304783 66.25712826 137.12304783 99.23712826 137.12304783 C99.23712826 93.56304783 99.23712826 50.00304783 99.23712826 5.12304783 C67.22712826 5.12304783 35.21712826 5.12304783 2.23712826 5.12304783 C2.23712826 36.14304783 2.23712826 67.16304783 2.23712826 99.12304783 C-0.23787174 99.61804783 -0.23787174 99.61804783 -2.76287174 100.12304783 C-2.78599284 87.23232528 -2.80378564 74.34160763 -2.81468391 61.45086861 C-2.81991325 55.46585517 -2.82701182 49.48085586 -2.8383112 43.49585056 C-2.84913827 37.72521354 -2.85514819 31.95459015 -2.85774899 26.18394375 C-2.85960356 23.9770184 -2.86322478 21.77009383 -2.8686018 19.56317425 C-2.87580984 16.48358741 -2.87686278 13.40405769 -2.87639713 10.32446384 C-2.87999241 9.40233601 -2.88358768 8.48020817 -2.88729191 7.53013706 C-2.87521638 0.20068909 -2.87521638 0.20068909 0 0 Z " fill="#F8BC43" transform="translate(6.762871742248535,17.876952171325684)"/>
<path d="M0 0 C16.56519205 1.45843347 32.30612958 4.56814077 44.25 17.1875 C53.85580115 29.30390827 56.35772138 43.00819695 55 58 C52.92887711 69.35185076 46.47975455 79.14729723 37.0546875 85.78125 C34.4388477 87.3328508 31.72403528 88.64933058 29 90 C30.45130677 93.84677654 31.90470854 97.6927551 33.35968018 101.53814697 C33.86906421 102.88552239 34.37781477 104.23313747 34.88592529 105.58099365 C37.4488631 112.37947793 40.02015536 119.16315541 42.87084961 125.84765625 C46.04251718 133.32248303 48.48168382 140.47263278 45.875 148.4375 C42.01624435 153.71113272 37.30163956 156.41942483 31 158 C25.16104729 158.85688527 19.77924817 159.39462661 14 158 C14 157.67 14 157.34 14 157 C14.59167969 156.90203125 15.18335938 156.8040625 15.79296875 156.703125 C20.82440698 155.75100945 24.31578146 154.79935037 28 151 C30.3472821 143.9581537 28.4130446 138.56739195 25.67578125 132.05859375 C25.3325029 131.21386002 24.98922455 130.36912628 24.63554382 129.49879456 C23.5392367 126.80687503 22.42666368 124.1220717 21.3125 121.4375 C12.77659995 100.65979614 12.77659995 100.65979614 9.91796875 92.97265625 C9.51731201 91.904104 9.11665527 90.83555176 8.70385742 89.73461914 C7.98246626 86.93187809 7.78851755 85.61215531 9 83 C11.21274785 81.75421703 13.30431953 80.74187032 15.625 79.75 C23.05845436 76.25952471 27.88318341 72.78667535 31.30078125 65.05859375 C36.28215085 50.83344551 34.49221349 36.35055218 28.57421875 22.71484375 C24.01024135 13.95247887 17.82641255 7.29848862 8.296875 4.08984375 C6.54027767 3.59046822 4.77605788 3.11678998 3.00390625 2.67578125 C1 2 1 2 0 0 Z " fill="#7A77A9" transform="translate(516,7)"/>
<path d="M0 0 C7.94361169 0.26478706 14.33038047 2.63723875 21 7 C34.81107908 22.10362375 31.2112889 52.8003744 31.1875 72 C31.18659363 73.35528305 31.18659363 73.35528305 31.18566895 74.73794556 C31.15311246 92.700192 30.15571383 110.14888267 27.125 127.875 C26.90118652 129.20470825 26.90118652 129.20470825 26.67285156 130.5612793 C25.37227156 137.52230794 23.59919077 145.22708025 18 150 C6.77321773 154.15237152 -5.77820971 154.59280973 -16.8515625 149.75390625 C-19.2666647 148.55315826 -21.64441081 147.31311568 -24 146 C-19.48296623 144.46701704 -14.71053728 145.045991 -10.01953125 145.30273438 C-4.78821598 145.43573392 -1.91764288 144.45506406 2 141 C15.1367049 119.91676156 12.28136154 86.25694534 12.3125 62.4375 C12.31608521 61.32901703 12.31967041 60.22053406 12.32336426 59.07846069 C13.54993944 30.47293914 13.54993944 30.47293914 5 4 C2.96731398 1.83656989 2.96731398 1.83656989 0 0 Z " fill="#E86477" transform="translate(254,12)"/>
<path d="M0 0 C0.77338431 0.00092179 1.54676863 0.00184359 2.34358883 0.00279331 C3.22844967 0.00141865 4.11331051 0.00004398 5.02498531 -0.00137234 C6.00321758 0.00222294 6.98144985 0.00581821 7.98932552 0.00952244 C9.01359646 0.00937641 10.03786739 0.00923038 11.09317684 0.00907993 C14.49665055 0.00977955 17.9000703 0.0175742 21.30353451 0.02539158 C23.65623094 0.02725559 26.00892776 0.02867957 28.36162472 0.0296793 C34.56769531 0.03350584 40.77374266 0.04333728 46.97980404 0.05438328 C53.30711204 0.06459448 59.63442378 0.06917629 65.96173763 0.0742197 C78.38687807 0.08495942 90.81200124 0.10203747 103.23712826 0.12304783 C104.5452948 2.73938091 104.36302126 4.65812134 104.3641119 7.58911228 C104.36834164 9.33063068 104.36834164 9.33063068 104.37265682 11.10733128 C104.36962048 13.02743519 104.36962048 13.02743519 104.36652279 14.98632908 C104.36787726 16.34296815 104.36965745 17.69960685 104.37183285 19.05624485 C104.37640176 22.7462348 104.37461984 26.43619687 104.37145376 30.12618732 C104.36892737 33.98231934 104.37126848 37.83844892 104.37283993 41.69458103 C104.3746608 48.17106653 104.37225745 54.64754063 104.36749935 61.12402439 C104.36205689 68.61871885 104.3638196 76.11338611 104.36932576 83.60807991 C104.37385921 90.03527688 104.37450629 96.46246565 104.37188709 102.8896637 C104.3703256 106.73167396 104.37012706 110.57367143 104.37342358 114.41568089 C104.37630565 118.02714026 104.37432037 121.63856446 104.36852932 125.25002003 C104.36656955 127.21293432 104.36955278 129.17585157 104.37265682 131.13876438 C104.369837 132.29977665 104.36701717 133.46078892 104.3641119 134.65698338 C104.36354636 136.17681072 104.36354636 136.17681072 104.3629694 137.72734165 C104.23712826 140.12304783 104.23712826 140.12304783 103.23712826 142.12304783 C89.56410263 142.14616833 75.89108162 142.16396142 62.21804047 142.17486 C55.8698225 142.18008947 49.52161785 142.18718827 43.17340755 142.19848728 C37.05264243 142.20931389 30.93189017 142.21532418 24.81111622 142.21792507 C22.47021882 142.21977973 20.12932217 142.22340111 17.78843021 142.22877789 C14.52204624 142.23598531 11.25571611 142.2370389 7.98932552 142.23657322 C6.52197712 142.24196613 6.52197712 142.24196613 5.02498531 142.24746799 C4.14012447 142.24609333 3.25526363 142.24471867 2.34358883 142.24330235 C1.18351236 142.24468503 1.18351236 142.24468503 0 142.24609566 C-1.76287174 142.12304783 -1.76287174 142.12304783 -2.76287174 141.12304783 C-2.85149166 138.31141403 -2.87809529 135.52446527 -2.86052799 132.71289158 C-2.85911304 131.87085682 -2.8576981 131.02882206 -2.85624027 130.1612711 C-2.85062438 127.46099448 -2.83806923 124.76079955 -2.82537174 122.06054783 C-2.82035879 120.23437715 -2.81579553 118.40820517 -2.81169987 116.5820322 C-2.80064978 112.09567241 -2.78337453 107.60937399 -2.76287174 103.12304783 C-1.11287174 103.45304783 0.53712826 103.78304783 2.23712826 104.12304783 C2.23712826 115.01304783 2.23712826 125.90304783 2.23712826 137.12304783 C34.24712826 137.12304783 66.25712826 137.12304783 99.23712826 137.12304783 C99.23712826 93.56304783 99.23712826 50.00304783 99.23712826 5.12304783 C67.22712826 5.12304783 35.21712826 5.12304783 2.23712826 5.12304783 C2.23712826 36.14304783 2.23712826 67.16304783 2.23712826 99.12304783 C-0.23787174 99.61804783 -0.23787174 99.61804783 -2.76287174 100.12304783 C-2.78599284 87.23232528 -2.80378564 74.34160763 -2.81468391 61.45086861 C-2.81991325 55.46585517 -2.82701182 49.48085586 -2.8383112 43.49585056 C-2.84913827 37.72521354 -2.85514819 31.95459015 -2.85774899 26.18394375 C-2.85960356 23.9770184 -2.86322478 21.77009383 -2.8686018 19.56317425 C-2.87580984 16.48358741 -2.87686278 13.40405769 -2.87639713 10.32446384 C-2.87999241 9.40233601 -2.88358768 8.48020817 -2.88729191 7.53013706 C-2.87521638 0.20068909 -2.87521638 0.20068909 0 0 Z " fill="#000000" transform="translate(6.762871742248535,17.876952171325684)"/>
<path d="M0 0 C5.52766125 2.43551381 8.60387421 6.83359791 11.8125 11.8125 C14.2609498 18.38465474 14.94039077 24.68585522 12 31.18359375 C9.44316365 35.82784727 6.86253994 38.96051691 1.9375 41 C-7.94613505 43.72370801 -16.78785719 39.33833161 -25.66796875 35.34375 C-31.72980805 32.8991161 -36.5583948 32.23950002 -42.8125 34.1875 C-52.63511876 39.77291067 -56.86259696 49.31682269 -59.875 59.875 C-62.95032804 72.81779164 -62.13889313 84.91837683 -60 98 C-67.75095995 95.02084568 -72.13739046 90.28345436 -76 83 C-81.11369055 68.40431376 -77.85340515 53.03978956 -71.52001953 39.39892578 C-66.9960083 30.11643465 -62.24240135 23.76900027 -53 19 C-44.69990733 16.23330244 -38.8756075 18.2915294 -31.3125 22 C-23.19022962 25.91901879 -16.11337769 27.8931171 -7 26 C-1.77583858 22.99252686 2.05621327 19.8313602 4 14 C4.58540622 7.91177526 3.23443375 4.95272669 0 0 Z " fill="#6DD2FE" transform="translate(404,19)"/>
<path d="M0 0 C6.09066922 4.67065365 10.53492721 9.17167591 11.9375 16.9375 C13.0659463 33.06602515 6.0615144 48.86644832 -4 61 C-13.00130256 71.24225883 -24.65720978 78.20729488 -38.53271484 79.17700195 C-61.53262458 79.70325331 -81.53831591 76.34195738 -99 60 C-103.55867146 55.41795074 -107.53131236 51.01742611 -110 45 C-109.34 45 -108.68 45 -108 45 C-106.97616089 46.14920716 -106.00615653 47.34659048 -105.0625 48.5625 C-97.23561471 57.7562426 -84.85655268 63.95866247 -73 66 C-69.1830002 66.27417243 -65.3878893 66.27990532 -61.5625 66.25 C-60.57701172 66.25773437 -59.59152344 66.26546875 -58.57617188 66.2734375 C-43.27004754 66.23286461 -28.81080042 61.13095471 -17.46875 50.6640625 C-6.3684451 39.26284572 1.07827993 23.36434086 1.3125 7.25 C1.22257902 4.46718229 0.89561561 2.68684684 0 0 Z " fill="#6ED2FE" transform="translate(417,92)"/>
<path d="M0 0 C0.66 0 1.32 0 2 0 C4.91221837 7.96085923 7.67094392 15.91836002 10.0859375 24.046875 C10.87790605 26.60554263 11.78872009 29.06496901 12.75 31.5625 C16.22504483 42.23767443 13.50194125 54.95940276 12.40087891 65.92797852 C12.12460427 68.69145836 11.86054915 71.45592169 11.59765625 74.22070312 C11.42260257 76.00527985 11.24684549 77.78978775 11.0703125 79.57421875 C10.95455368 80.79331184 10.95455368 80.79331184 10.8364563 82.03703308 C9.17458908 98.28394702 9.17458908 98.28394702 5 102 C-5.62626039 105.78164822 -18.82767224 104.68860276 -29 100.12109375 C-31.44252785 98.75194239 -33.26927497 97.20274095 -35 95 C-34.2575 95.165 -33.515 95.33 -32.75 95.5 C-29.43756181 95.94165843 -26.27419676 96.16771401 -22.9375 96.25 C-21.93589844 96.27578125 -20.93429688 96.3015625 -19.90234375 96.328125 C-16.39339914 95.93142063 -14.72288556 95.25912259 -12 93 C-8.64014888 86.81573431 -8.13321724 80.62262658 -7.46484375 73.69140625 C-7.27856163 71.89388161 -7.27856163 71.89388161 -7.08851624 70.06004333 C-6.69434028 66.22851643 -6.31595631 62.39560794 -5.9375 58.5625 C-5.68001492 56.05133177 -5.42156005 53.54026278 -5.16210938 51.02929688 C-3.84776857 38.1868453 -2.63540079 25.3408169 -1.6493988 12.46864319 C-1.57761917 11.55465256 -1.50583954 10.64066193 -1.43188477 9.69897461 C-1.37202896 8.90784775 -1.31217316 8.11672089 -1.25050354 7.30162048 C-0.98116011 4.82689953 -0.52160155 2.43297956 0 0 Z " fill="#E86477" transform="translate(189,63)"/>
<path d="M0 0 C0.495 2.97 0.495 2.97 1 6 C-1.31 6.66 -3.62 7.32 -6 8 C-6.03092239 8.85658203 -6.03092239 8.85658203 -6.06246948 9.73046875 C-6.27967904 15.70109907 -6.50877796 21.6711909 -6.74462891 27.64111328 C-6.83098257 29.865933 -6.91435551 32.09087057 -6.99462891 34.31591797 C-7.11087585 37.52347246 -7.23801507 40.73044313 -7.3671875 43.9375 C-7.41732498 45.41766602 -7.41732498 45.41766602 -7.46847534 46.92773438 C-8.03258641 60.22600134 -8.03258641 60.22600134 -11.41015625 64.98828125 C-19.98579614 71.86095719 -30.27992822 73.7873705 -41.140625 72.6796875 C-48.54075235 71.45924765 -48.54075235 71.45924765 -51 69 C-50.17757813 69.05800781 -49.35515625 69.11601562 -48.5078125 69.17578125 C-40.71349915 69.49079391 -34.28846342 68.9798145 -28 64 C-22.97220919 58.40294741 -23.31520478 52.6545806 -23.171875 45.3828125 C-23.1331427 44.17051971 -23.0944104 42.95822693 -23.05450439 41.709198 C-22.93522027 37.84808234 -22.8422691 33.98684639 -22.75 30.125 C-22.67361176 27.502553 -22.59550661 24.88015541 -22.515625 22.2578125 C-22.3238449 15.83898122 -22.15366232 9.41985081 -22 3 C-14.58463324 0.44869899 -7.78065718 -0.15878892 0 0 Z " fill="#7B78AA" transform="translate(500,99)"/>
<path d="M0 0 C11.2505076 2.29177007 20.36754044 7.32051286 28 16 C33.19573851 24.77200749 37.03036126 34.3948716 40.6550293 43.90405273 C41.17771151 45.26237416 41.71197563 46.61629401 42.25756836 47.96557617 C46.26856359 57.88600071 47.81519401 66.14951322 47 77 C46.89643188 78.46336792 46.89643188 78.46336792 46.79077148 79.95629883 C46.57640595 82.45875855 46.30466442 84.94460395 46 87.4375 C45.90460938 88.27603516 45.80921875 89.11457031 45.7109375 89.97851562 C45.48144817 91.98654722 45.24191191 93.99342708 45 96 C42.64159518 93.64159518 42.07785879 91.85625058 40.9609375 88.71875 C40.55327148 87.58687256 40.14560547 86.45499512 39.72558594 85.28881836 C39.50672729 84.67424774 39.28786865 84.05967712 39.06237793 83.42648315 C37.86166303 80.06129359 36.63683082 76.70488217 35.4140625 73.34765625 C35.14851563 72.61768936 34.88296875 71.88772247 34.609375 71.13563538 C31.39193685 62.3059667 28.11196399 53.50009274 24.79327393 44.70800781 C24.10517664 42.88070354 23.42048709 41.05211192 22.73944092 39.22216797 C15.89119798 19.20317665 15.89119798 19.20317665 3 3 C2.01 2.67 1.02 2.34 0 2 C0 1.34 0 0.68 0 0 Z " fill="#E86477" transform="translate(182,14)"/>
<path d="M0 0 C0.69287109 0.32935547 1.38574219 0.65871094 2.09960938 0.99804688 C3.79794948 1.80622251 5.49305769 2.62118377 7.1875 3.4375 C5.59406142 17.0026942 2.4385944 25.93948168 -7.78125 35.2265625 C-9.8125 36.4375 -9.8125 36.4375 -11.8203125 36.30078125 C-19.35756484 33.03463857 -23.30357377 26.64775307 -26.625 19.4453125 C-28.75351379 14.05401111 -29.8125 9.22520957 -29.8125 3.4375 C-27.09081329 2.06615399 -24.3618512 0.71545288 -21.625 -0.625 C-20.85607422 -1.01494141 -20.08714844 -1.40488281 -19.29492188 -1.80664062 C-11.4897963 -5.59195904 -7.46185889 -3.60597009 0 0 Z " fill="#F5F6F7" transform="translate(69.8125,37.5625)"/>
<path d="M0 0 C-3.19978935 0.97189863 -5.92089453 1.01767595 -9.25 0.875 C-14.57451322 0.82503808 -18.23446595 1.61723297 -23 4 C-23.91187611 6.73562834 -24.14730259 8.46145475 -24.20532227 11.2878418 C-24.22526749 12.14850754 -24.24521271 13.00917328 -24.26576233 13.8959198 C-24.28247482 14.82100845 -24.29918732 15.74609711 -24.31640625 16.69921875 C-24.33718735 17.64940384 -24.35796844 18.59958893 -24.37937927 19.5785675 C-24.44478052 22.61480456 -24.50371604 25.65112831 -24.5625 28.6875 C-24.60569417 30.74545169 -24.64930876 32.80339459 -24.69335938 34.86132812 C-24.80045231 39.90746316 -24.90174646 44.95368543 -25 50 C-27.62329684 51.31164842 -29.63698625 51.13262846 -32.5625 51.125 C-33.55378906 51.12757812 -34.54507812 51.13015625 -35.56640625 51.1328125 C-38 51 -38 51 -39 50 C-39.11926707 48.45663496 -39.17009505 46.90790635 -39.19287109 45.36010742 C-39.20893402 44.37205612 -39.22499695 43.38400482 -39.24154663 42.36601257 C-39.28583434 37.83800799 -39.3270662 33.31015279 -39.35009766 28.78198242 C-39.36666269 26.39093293 -39.39395959 23.99993306 -39.43212891 21.60913086 C-39.48678761 18.17014757 -39.50875611 14.73232744 -39.5234375 11.29296875 C-39.54610687 10.22306198 -39.56877625 9.15315521 -39.59213257 8.05082703 C-39.5709291 0.62965192 -39.5709291 0.62965192 -36.58837891 -2.65966797 C-26.42660809 -7.92170549 -9.39111842 -6.20970693 0 0 Z " fill="#7A77A9" transform="translate(517,30)"/>
<path d="M0 0 C1.3293457 0.60424805 1.3293457 0.60424805 2.68554688 1.22070312 C3.59755859 1.64158203 4.50957031 2.06246094 5.44921875 2.49609375 C6.38056641 2.92083984 7.31191406 3.34558594 8.27148438 3.78320312 C10.56208595 4.82865718 12.85035534 5.87891131 15.13671875 6.93359375 C14.03730669 21.91506328 10.73457446 34.39391556 -0.8828125 44.73046875 C-6.0888915 48.94169406 -6.0888915 48.94169406 -8.73046875 48.9140625 C-11.93690454 47.44004165 -14.31947084 45.13563843 -16.86328125 42.74609375 C-17.3840625 42.27623047 -17.90484375 41.80636719 -18.44140625 41.32226562 C-27.50451032 32.93431703 -30.26632896 22.86376677 -31.86328125 10.93359375 C-31.86328125 9.61359375 -31.86328125 8.29359375 -31.86328125 6.93359375 C-28.31104216 5.2238524 -24.74510271 3.54484336 -21.17578125 1.87109375 C-20.16837891 1.38576172 -19.16097656 0.90042969 -18.12304688 0.40039062 C-17.14658203 -0.05400391 -16.17011719 -0.50839844 -15.1640625 -0.9765625 C-14.26856689 -1.40074463 -13.37307129 -1.82492676 -12.45043945 -2.26196289 C-7.80966852 -3.70495055 -4.25505655 -1.94909042 0 0 Z M-13.875 3.68359375 C-15.01098633 4.225 -15.01098633 4.225 -16.16992188 4.77734375 C-17.34844727 5.3496875 -17.34844727 5.3496875 -18.55078125 5.93359375 C-19.34806641 6.31515625 -20.14535156 6.69671875 -20.96679688 7.08984375 C-22.93483527 8.03261663 -24.90013361 8.98068943 -26.86328125 9.93359375 C-25.34391104 23.10611527 -21.71232702 33.03937004 -11.57421875 42.03515625 C-9.89330499 43.11317067 -9.89330499 43.11317067 -7.8984375 42.76953125 C-1.55814337 40.16526456 3.05827125 34.51382871 6.10546875 28.54296875 C8.41707799 22.69389689 10.13671875 16.24398842 10.13671875 9.93359375 C7.37036535 8.59081643 4.59795664 7.26104147 1.82421875 5.93359375 C1.03853516 5.55203125 0.25285156 5.17046875 -0.55664062 4.77734375 C-1.31396484 4.41640625 -2.07128906 4.05546875 -2.8515625 3.68359375 C-3.54805908 3.3484375 -4.24455566 3.01328125 -4.9621582 2.66796875 C-8.47044282 1.31277161 -10.65821458 2.13566693 -13.875 3.68359375 Z " fill="#070C0F" transform="translate(66.86328125,31.06640625)"/>
<path d="M0 0 C-0.58086997 10.86347127 -2.46636175 21.47334397 -4.30859375 32.17578125 C-4.63900758 34.11478642 -4.96908488 36.05384897 -5.29884338 37.9929657 C-5.98742246 42.0353396 -6.67951815 46.07709033 -7.37426758 50.1184082 C-8.26248769 55.28639199 -9.1426383 60.45571085 -10.02027798 65.62550068 C-10.69937357 69.62121063 -11.3823155 73.61625564 -12.06645393 77.61110497 C-12.39246086 79.51702552 -12.7173793 81.4231326 -13.04116631 83.32943153 C-13.49422668 85.99283871 -13.95236814 88.65532373 -14.41186523 91.31762695 C-14.54336472 92.09647247 -14.6748642 92.87531799 -14.81034851 93.67776489 C-15.60205014 98.22698548 -16.65432648 102.58182953 -18 107 C-21.3 107 -24.6 107 -28 107 C-27.67 105.35 -27.34 103.7 -27 102 C-25.35 102 -23.7 102 -22 102 C-21.96261719 101.40316406 -21.92523438 100.80632812 -21.88671875 100.19140625 C-21.45198196 94.45458553 -20.67158521 88.83588036 -19.6328125 83.1796875 C-18.56988085 77.27489212 -17.55228181 71.36595407 -16.60546875 65.44140625 C-16.49095367 64.72550323 -16.3764386 64.00960022 -16.25845337 63.27200317 C-16.02260818 61.79543657 -15.78699508 60.31883287 -15.55160522 58.8421936 C-13.36439918 45.14791159 -11.08397988 31.47171619 -8.6875 17.8125 C-8.55862396 17.0718631 -8.42974792 16.3312262 -8.29696655 15.56814575 C-7.93450264 13.48881487 -7.56767069 11.41030836 -7.19921875 9.33203125 C-6.99127686 8.15358643 -6.78333496 6.9751416 -6.5690918 5.76098633 C-6 3 -6 3 -5 1 C-2 0 -2 0 0 0 Z " fill="#080602" transform="translate(142,53)"/>
<path d="M0 0 C1.25425781 0.05414063 2.50851563 0.10828125 3.80078125 0.1640625 C4.75339844 0.23367187 5.70601562 0.30328125 6.6875 0.375 C6.6875 2.025 6.6875 3.675 6.6875 5.375 C0.2525 5.87 0.2525 5.87 -6.3125 6.375 C-6.3125 11.985 -6.3125 17.595 -6.3125 23.375 C-3.71375 23.271875 -1.115 23.16875 1.5625 23.0625 C2.37960449 23.03760498 3.19670898 23.01270996 4.03857422 22.98706055 C5.9300767 22.8899089 7.81140686 22.63479725 9.6875 22.375 C10.3475 21.385 11.0075 20.395 11.6875 19.375 C13.0075 19.375 14.3275 19.375 15.6875 19.375 C16 21.625 16 21.625 15.6875 24.375 C12.89067262 27.38612261 10.68711369 28.62410356 6.65625 28.90625 C5.16666757 28.91679572 3.67679993 28.90586632 2.1875 28.875 C1.44113281 28.89046875 0.69476563 28.9059375 -0.07421875 28.921875 C-3.99209884 28.8941378 -5.90321541 28.63780379 -9.28125 26.46875 C-12.8234834 22.8175248 -12.59166963 19.48621334 -12.6875 14.625 C-12.72488281 13.92117187 -12.76226562 13.21734375 -12.80078125 12.4921875 C-12.86459155 8.67774984 -12.50162611 6.03004532 -10.24609375 2.8828125 C-6.55913501 -0.26902174 -4.77669479 -0.26785204 0 0 Z " fill="#0A1013" transform="translate(28.3125,121.625)"/>
<path d="M0 0 C1.25425781 0.04511719 2.50851563 0.09023437 3.80078125 0.13671875 C4.75339844 0.19472656 5.70601562 0.25273438 6.6875 0.3125 C6.6875 1.6325 6.6875 2.9525 6.6875 4.3125 C5.40552734 4.40337891 5.40552734 4.40337891 4.09765625 4.49609375 C2.99292969 4.57988281 1.88820313 4.66367188 0.75 4.75 C-0.35214844 4.83121094 -1.45429688 4.91242188 -2.58984375 4.99609375 C-5.22359903 5.01668084 -5.22359903 5.01668084 -6.3125 6.3125 C-6.41225032 8.82386104 -6.45132183 11.30153415 -6.4375 13.8125 C-6.44136719 14.51503906 -6.44523437 15.21757813 -6.44921875 15.94140625 C-6.75640931 19.41678808 -6.75640931 19.41678808 -5.3125 22.3125 C-2.8182035 22.46563272 -0.37061507 22.54406517 2.125 22.5625 C3.16624023 22.5934375 3.16624023 22.5934375 4.22851562 22.625 C6.48749047 22.67700458 6.48749047 22.67700458 9.6875 22.3125 C10.3475 21.3225 11.0075 20.3325 11.6875 19.3125 C13.0075 19.3125 14.3275 19.3125 15.6875 19.3125 C15.20475448 24.7433871 15.20475448 24.7433871 13.16796875 26.984375 C9.6056626 28.89175152 6.19068335 28.78701752 2.25 28.75 C1.12368164 28.7799707 1.12368164 28.7799707 -0.02539062 28.81054688 C-3.96684522 28.80708034 -5.88203639 28.58797408 -9.28515625 26.41015625 C-12.93917776 22.62940567 -12.59526734 19.01829493 -12.6875 14 C-12.74357422 12.86014648 -12.74357422 12.86014648 -12.80078125 11.69726562 C-12.86485044 7.60039673 -12.62032005 5.76288321 -10.24609375 2.2890625 C-6.55283707 -0.19933681 -4.41146989 -0.20614345 0 0 Z " fill="#050C10" transform="translate(28.3125,86.6875)"/>
<path d="M0 0 C1.65 0.33 3.3 0.66 5 1 C5 5.58234046 4.4819242 6.05508122 1.5 9.25 C0.8503125 9.95640625 0.200625 10.6628125 -0.46875 11.390625 C-0.9740625 11.92171875 -1.479375 12.4528125 -2 13 C-3.98 11.68 -5.96 10.36 -8 9 C-8.44844853 13.12612615 -8.44844853 13.12612615 -5.5 15.75 C-4.675 16.4925 -3.85 17.235 -3 18 C1.27651485 16.41610561 3.21900559 13.45745251 6 10 C6.33 10 6.66 10 7 10 C7 11.98 7 13.96 7 16 C6.34 16 5.68 16 5 16 C4.855625 16.639375 4.71125 17.27875 4.5625 17.9375 C4 20 4 20 3 21 C0.50761431 21.12653198 -1.94470441 21.18519825 -4.4375 21.1875 C-5.47874023 21.20586914 -5.47874023 21.20586914 -6.54101562 21.22460938 C-8.36220901 21.22989842 -10.1828692 21.12169207 -12 21 C-14.49210439 18.50789561 -14.26015661 16.99639212 -14.2734375 13.58984375 C-14.26570313 12.90019531 -14.25796875 12.21054688 -14.25 11.5 C-14.25773437 10.81035156 -14.26546875 10.12070313 -14.2734375 9.41015625 C-14.25333293 4.25333293 -14.25333293 4.25333293 -12 2 C-9.1796875 1.8046875 -9.1796875 1.8046875 -5.875 1.875 C-4.77929688 1.89304687 -3.68359375 1.91109375 -2.5546875 1.9296875 C-1.71164063 1.95289062 -0.86859375 1.97609375 0 2 C0 1.34 0 0.68 0 0 Z " fill="#EBEDEE" transform="translate(35,89)"/>
<path d="M0 0 C1.65 0.33 3.3 0.66 5 1 C5 5.58234046 4.4819242 6.05508122 1.5 9.25 C0.8503125 9.95640625 0.200625 10.6628125 -0.46875 11.390625 C-0.9740625 11.92171875 -1.479375 12.4528125 -2 13 C-3.98 11.68 -5.96 10.36 -8 9 C-8.95502158 10.72476911 -8.95502158 10.72476911 -9 13 C-6.91666667 15.91666667 -6.91666667 15.91666667 -4 18 C-1.33070116 17.81008941 -0.25140229 17.24551465 1.66796875 15.37109375 C2.16941406 14.73300781 2.67085937 14.09492188 3.1875 13.4375 C4.10865074 12.27848249 5.04210669 11.12884042 6 10 C6.33 10 6.66 10 7 10 C7 11.98 7 13.96 7 16 C6.34 16 5.68 16 5 16 C4.855625 16.639375 4.71125 17.27875 4.5625 17.9375 C4 20 4 20 3 21 C0.30345146 21.07319621 -2.36691458 21.09242537 -5.0625 21.0625 C-5.82111328 21.05798828 -6.57972656 21.05347656 -7.36132812 21.04882812 C-9.24091871 21.0370068 -11.12046899 21.01907078 -13 21 C-14.52491129 17.95017742 -14.14361434 14.77877461 -14.125 11.4375 C-14.12886719 10.73947266 -14.13273437 10.04144531 -14.13671875 9.32226562 C-14.12663994 4.12663994 -14.12663994 4.12663994 -13 3 C-10.81360547 2.92741054 -8.62499611 2.91626217 -6.4375 2.9375 C-4.64119141 2.95103516 -4.64119141 2.95103516 -2.80859375 2.96484375 C-1.88175781 2.97644531 -0.95492187 2.98804687 0 3 C0 2.01 0 1.02 0 0 Z " fill="#F2F4F5" transform="translate(35,124)"/>
<path d="M0 0 C7.33638441 0.33653139 14.43774154 1.56663633 21.625 3 C22.52637695 3.17821289 23.42775391 3.35642578 24.35644531 3.54003906 C30.87076011 4.87076011 30.87076011 4.87076011 32 6 C31.85093264 12.52456368 30.77219576 18.73824165 29 25 C27.35 24.67 25.7 24.34 24 24 C24.14183696 22.24967156 24.28863429 20.49974466 24.4375 18.75 C24.55931641 17.28820313 24.55931641 17.28820313 24.68359375 15.796875 C24.95074584 13.43538247 25.35371968 11.28098935 26 9 C24.55947266 9.04640625 24.55947266 9.04640625 23.08984375 9.09375 C18.48896781 9.09375 14.08015872 8.3081549 9.5625 7.5 C8.32209961 7.28537109 8.32209961 7.28537109 7.05664062 7.06640625 C5.03684899 6.71615337 3.01828958 6.35880704 1 6 C0.67 4.02 0.34 2.04 0 0 Z " fill="#080602" transform="translate(114,25)"/>
<path d="M0 0 C4.50824567 0.38205472 7.77272471 1.95478973 11.76953125 3.98046875 C12.49720703 4.32013672 13.22488281 4.65980469 13.97460938 5.00976562 C19.22073163 7.62549294 19.22073163 7.62549294 20.4375 11.0625 C20.44394531 11.79855469 20.45039063 12.53460938 20.45703125 13.29296875 C17.37935819 14.83180528 14.86936264 14.50863088 11.45703125 14.29296875 C7.78125 13.05078125 7.78125 13.05078125 4.14453125 11.41796875 C3.52513672 11.14855469 2.90574219 10.87914062 2.26757812 10.6015625 C-0.42526884 9.40279241 -2.44214951 8.39378799 -4.54296875 6.29296875 C-3.82933446 0.44116756 -3.82933446 0.44116756 0 0 Z " fill="#FAFAFB" transform="translate(375.54296875,12.70703125)"/>
<path d="M0 0 C2.3125 0.0625 2.3125 0.0625 5 1 C10.25380122 6.70412704 10.72503732 14.08178179 11.25 21.5625 C11 24 11 24 9 26 C7.0625 25.9375 7.0625 25.9375 5 25 C0.27615555 18.20493144 -1.73056375 9.2188422 -1 1 C-0.67 0.67 -0.34 0.34 0 0 Z " fill="#FDF6F7" transform="translate(249,18)"/>
<path d="M0 0 C3.79530834 0 5.96726655 0.10225038 8.8828125 2.63671875 C10.69313646 4.69390506 12.3644992 6.80178976 14 9 C14.804375 10.03125 15.60875 11.0625 16.4375 12.125 C18.20080512 15.36948142 18.3464393 17.36238739 18 21 C16.203125 21.640625 16.203125 21.640625 14 22 C7.79543231 17.70453006 2.5095986 11.69748399 -1 5 C-0.71875 2.16015625 -0.71875 2.16015625 0 0 Z " fill="#FBF8FA" transform="translate(522,16)"/>
<path d="M0 0 C1.32 0.66 2.64 1.32 4 2 C2.68761832 4.84258606 1.23292824 7.09408245 -0.8203125 9.453125 C-1.35527344 10.071875 -1.89023437 10.690625 -2.44140625 11.328125 C-2.99699219 11.96234375 -3.55257812 12.5965625 -4.125 13.25 C-4.68832031 13.8996875 -5.25164063 14.549375 -5.83203125 15.21875 C-7.21764364 16.815727 -8.60832754 18.40830122 -10 20 C-14.26063959 19.1697683 -16.24567419 17.383886 -19 14 C-18.8125 11.6875 -18.8125 11.6875 -18 10 C-14.48283697 10 -13.62878252 10.82445585 -11 13 C-9.3514184 11.21079529 -7.70606879 9.4187995 -6.0625 7.625 C-5.59392578 7.11710938 -5.12535156 6.60921875 -4.64257812 6.0859375 C-2.02273232 3.25734146 -2.02273232 3.25734146 0 0 Z " fill="#0D0F0F" transform="translate(44,123)"/>
<path d="M0 0 C0.99 0.66 1.98 1.32 3 2 C2.13951346 6.59774026 -0.59496345 9.11015843 -3.8125 12.3125 C-4.34681641 12.87517578 -4.88113281 13.43785156 -5.43164062 14.01757812 C-7.01953125 15.61328125 -7.01953125 15.61328125 -10 18 C-13.38360391 17.57263085 -14.94460543 16.40008057 -17.25 13.9375 C-17.77078125 13.38964844 -18.2915625 12.84179688 -18.828125 12.27734375 C-19.21484375 11.85582031 -19.6015625 11.43429688 -20 11 C-19.34 9.68 -18.68 8.36 -18 7 C-17.34 7 -16.68 7 -16 7 C-14.375 9 -14.375 9 -13 11 C-9.31930113 9.46356148 -7.01224796 7.21849055 -4.25 4.375 C-3.45078125 3.55773438 -2.6515625 2.74046875 -1.828125 1.8984375 C-1.22484375 1.27195313 -0.6215625 0.64546875 0 0 Z " fill="#121212" transform="translate(68,43)"/>
<path d="M0 0 C11.55 0 23.1 0 35 0 C35 1.32 35 2.64 35 4 C23.45 4 11.9 4 0 4 C0 2.68 0 1.36 0 0 Z " fill="#000000" transform="translate(54,122)"/>
<path d="M0 0 C11.55 0 23.1 0 35 0 C35 1.32 35 2.64 35 4 C23.45 4 11.9 4 0 4 C0 2.68 0 1.36 0 0 Z " fill="#000000" transform="translate(54,87)"/>
<path d="M0 0 C1.32 0.66 2.64 1.32 4 2 C2.68761832 4.84258606 1.23292824 7.09408245 -0.8203125 9.453125 C-1.35527344 10.071875 -1.89023437 10.690625 -2.44140625 11.328125 C-2.99699219 11.96234375 -3.55257812 12.5965625 -4.125 13.25 C-4.68832031 13.8996875 -5.25164063 14.549375 -5.83203125 15.21875 C-7.21764364 16.815727 -8.60832754 18.40830122 -10 20 C-13.76488042 18.27845212 -16.15063897 16.00765886 -19 13 C-18.34 11.68 -17.68 10.36 -17 9 C-14.03 10.98 -14.03 10.98 -11 13 C-7.37 8.71 -3.74 4.42 0 0 Z " fill="#07090A" transform="translate(44,88)"/>
<path d="M0 0 C6.27 0 12.54 0 19 0 C19 1.65 19 3.3 19 5 C12.73 5 6.46 5 0 5 C0 3.35 0 1.7 0 0 Z " fill="#031119" transform="translate(70,98)"/>
<path d="M0 0 C4.95 0 9.9 0 15 0 C15 1.65 15 3.3 15 5 C10.05 5 5.1 5 0 5 C0 3.35 0 1.7 0 0 Z " fill="#041720" transform="translate(16,28)"/>
<path d="M0 0 C5.94 0 11.88 0 18 0 C18 1.32 18 2.64 18 4 C12.06 4 6.12 4 0 4 C0 2.68 0 1.36 0 0 Z " fill="#000000" transform="translate(71,134)"/>
<path d="M0 0 C3.96 0 7.92 0 12 0 C12 1.65 12 3.3 12 5 C8.04 5 4.08 5 0 5 C0 3.35 0 1.7 0 0 Z " fill="#04141C" transform="translate(54,98)"/>
<path d="M0 0 C3.3 0 6.6 0 10 0 C10 1.65 10 3.3 10 5 C6.7 5 3.4 5 0 5 C0 3.35 0 1.7 0 0 Z " fill="#051A24" transform="translate(16,37)"/>
<path d="M0 0 C3.63 0 7.26 0 11 0 C11 1.32 11 2.64 11 4 C7.37 4 3.74 4 0 4 C0 2.68 0 1.36 0 0 Z " fill="#000000" transform="translate(54,134)"/>
<path d="M0 0 C1.67542976 0.28604898 3.34385343 0.61781233 5 1 C5.38218767 2.65614657 5.71395102 4.32457024 6 6 C5 7 5 7 2.5 7.125 C0 7 0 7 -1 6 C-1.125 3.5 -1.125 3.5 -1 1 C-0.67 0.67 -0.34 0.34 0 0 Z " fill="#FDF2F3" transform="translate(255,49)"/>
<path d="M0 0 C1.66611905 -0.042721 3.33382885 -0.04063832 5 0 C6 1 6 1 6.0625 3.5625 C6.041875 4.366875 6.02125 5.17125 6 6 C3.625 6.625 3.625 6.625 1 7 C0.34 6.34 -0.32 5.68 -1 5 C-0.625 2.375 -0.625 2.375 0 0 Z " fill="#F8F6FA" transform="translate(540,42)"/>
<path d="M0 0 C1.98 0 3.96 0 6 0 C6.38218767 1.65614657 6.71395102 3.32457024 7 5 C6 6 6 6 3.4375 6.0625 C2.2309375 6.0315625 2.2309375 6.0315625 1 6 C-0.0625 4.125 -0.0625 4.125 -1 2 C-0.67 1.34 -0.34 0.68 0 0 Z " fill="#F8F9FB" transform="translate(397,27)"/>
<path d="M0 0 C1.65 0 3.3 0 5 0 C5 1.65 5 3.3 5 5 C3.35 5 1.7 5 0 5 C0 3.35 0 1.7 0 0 Z " fill="#051822" transform="translate(96,28)"/>
<path d="M0 0 C1.45922693 0.11409593 2.91740598 0.24165544 4.375 0.375 C5.59316406 0.47941406 5.59316406 0.47941406 6.8359375 0.5859375 C9 1 9 1 11 3 C7.04 3 3.08 3 -1 3 C-0.67 2.01 -0.34 1.02 0 0 Z " fill="#D0C7F9" transform="translate(500,6)"/>
<path d="M0 0 C0.33 0 0.66 0 1 0 C1 4.29 1 8.58 1 13 C0.01 13.33 -0.98 13.66 -2 14 C-1.34 9.38 -0.68 4.76 0 0 Z " fill="#D1CBFB" transform="translate(442,88)"/>
<path d="M0 0 C1.32 0 2.64 0 4 0 C4 1.65 4 3.3 4 5 C2.68 5 1.36 5 0 5 C0 3.35 0 1.7 0 0 Z " fill="#020C11" transform="translate(87,28)"/>
</svg>
